<?xml version="1.0" encoding="UTF-8" standalone="no"?>
<svg
   xmlns:dc="http://purl.org/dc/elements/1.1/"
   xmlns:cc="http://creativecommons.org/ns#"
   xmlns:rdf="http://www.w3.org/1999/02/22-rdf-syntax-ns#"
   xmlns:svg="http://www.w3.org/2000/svg"
   xmlns="http://www.w3.org/2000/svg"
   xmlns:sodipodi="http://sodipodi.sourceforge.net/DTD/sodipodi-0.dtd"
   xmlns:inkscape="http://www.inkscape.org/namespaces/inkscape"
   width="24"
   height="24"
   version="1.1"
   id="svg23"
   sodipodi:docname="start-here-big.svg"
   inkscape:export-filename="/home/josue/Escritorio/start-here.png"
   inkscape:export-xdpi="96"
   inkscape:export-ydpi="96"
   inkscape:version="1.0.2 (e86c870879, 2021-01-15, custom)">
  <metadata
     id="metadata27">
    <rdf:RDF>
      <cc:Work
         rdf:about="">
        <dc:format>image/svg+xml</dc:format>
        <dc:type
           rdf:resource="http://purl.org/dc/dcmitype/StillImage" />
        <dc:title />
      </cc:Work>
    </rdf:RDF>
  </metadata>
  <sodipodi:namedview
     pagecolor="#ffffff"
     bordercolor="#666666"
     borderopacity="1"
     objecttolerance="10"
     gridtolerance="10"
     guidetolerance="10"
     inkscape:pageopacity="0"
     inkscape:pageshadow="2"
     inkscape:window-width="1364"
     inkscape:window-height="698"
     id="namedview25"
     showgrid="false"
     inkscape:zoom="16"
     inkscape:cx="11.661003"
     inkscape:cy="9.7623624"
     inkscape:window-x="0"
     inkscape:window-y="0"
     inkscape:window-maximized="1"
     inkscape:current-layer="svg23"
     inkscape:document-rotation="0" />
  <defs
     id="defs3">
    <style
       id="current-color-scheme"
       type="text/css">
   .ColorScheme-Text { color:#dfdfdf; } .ColorScheme-Highlight { color:#4285f4; } .ColorScheme-NeutralText { color:#ff9800; } .ColorScheme-PositiveText { color:#4caf50; } .ColorScheme-NegativeText { color:#f44336; }
  </style>
  </defs>
  <path
     id="rect21"
     style="color:#dfdfdf;fill:#ffffff;stroke-width:2.39999;fill-opacity:1"
     d="m 20.4,19.2 h 2.4 c 0.6648,0 1.2,0.5352 1.2,1.2 v 2.4 c 0,0.6648 -0.5352,1.2 -1.2,1.2 h -2.4 c -0.6648,0 -1.2,-0.5352 -1.2,-1.2 v -2.4 c 0,-0.6648 0.5352,-1.2 1.2,-1.2 z m -9.6,0 h 2.4 c 0.6648,0 1.2,0.5352 1.2,1.2 v 2.4 c 0,0.6648 -0.5352,1.2 -1.2,1.2 H 10.8 C 10.1352,24 9.6000003,23.4648 9.6000003,22.8 v -2.4 c 0,-0.6648 0.5351997,-1.2 1.1999997,-1.2 z m -9.5999997,0 h 2.4000001 c 0.6648,0 1.2,0.5352 1.2,1.2 v 2.4 c 0,0.6648 -0.5352,1.2 -1.2,1.2 H 1.2000003 C 0.5352003,24 2.95e-7,23.4648 2.95e-7,22.8 v -2.4 c 0,-0.6648 0.535200005,-1.2 1.200000005,-1.2 z M 20.4,9.6000002 h 2.4 c 0.6648,0 1.2,0.5351998 1.2,1.1999998 v 2.4 c 0,0.6648 -0.5352,1.2 -1.2,1.2 h -2.4 c -0.6648,0 -1.2,-0.5352 -1.2,-1.2 v -2.4 c 0,-0.6648 0.5352,-1.1999998 1.2,-1.1999998 z m -9.6,0 h 2.4 c 0.6648,0 1.2,0.5351998 1.2,1.1999998 v 2.4 c 0,0.6648 -0.5352,1.2 -1.2,1.2 h -2.4 c -0.6648,0 -1.1999997,-0.5352 -1.1999997,-1.2 V 10.8 C 9.6000003,10.1352 10.1352,9.6000002 10.8,9.6000002 Z m -9.5999997,0 h 2.4000001 c 0.6648,0 1.2,0.5351998 1.2,1.1999998 v 2.4 c 0,0.6648 -0.5352,1.2 -1.2,1.2 H 1.2000003 C 0.5352003,14.4 2.95e-7,13.8648 2.95e-7,13.2 V 10.8 C 2.95e-7,10.1352 0.5352003,9.6000002 1.2000003,9.6000002 Z M 20.4,1.95e-7 h 2.4 c 0.6648,0 1.2,0.535200005 1.2,1.200000005 v 2.4 c 0,0.6648 -0.5352,1.2 -1.2,1.2 h -2.4 c -0.6648,0 -1.2,-0.5352 -1.2,-1.2 v -2.4 C 19.2,0.5352002 19.7352,1.95e-7 20.4,1.95e-7 Z m -9.6,0 h 2.4 c 0.6648,0 1.2,0.535200005 1.2,1.200000005 v 2.4 c 0,0.6648 -0.5352,1.2 -1.2,1.2 h -2.4 c -0.6648,0 -1.1999997,-0.5352 -1.1999997,-1.2 v -2.4 C 9.6000003,0.5352002 10.1352,1.95e-7 10.8,1.95e-7 Z m -9.5999997,0 h 2.4000001 c 0.6648,0 1.2,0.535200005 1.2,1.200000005 v 2.4 c 0,0.6648 -0.5352,1.2 -1.2,1.2 H 1.2000003 c -0.6648,0 -1.200000005,-0.5352 -1.200000005,-1.2 v -2.4 C 2.95e-7,0.5352002 0.5352003,1.95e-7 1.2000003,1.95e-7 Z" />
</svg>
